ffmpeg version 8.1.1 Copyright (c) 2000-2026 the FFmpeg developers
  built with Apple clang version 17.0.0 (clang-1700.6.4.2)
  configuration: --prefix=/opt/homebrew/Cellar/ffmpeg/8.1.1 --enable-shared --enable-pthreads --enable-version3 --cc=clang --host-cflags= --host-ldflags= --enable-ffplay --enable-gpl --enable-libsvtav1 --enable-libopus --enable-libx264 --enable-libmp3lame --enable-libdav1d --enable-libvmaf --enable-libvpx --enable-libx265 --enable-openssl --enable-videotoolbox --enable-audiotoolbox --enable-neon
  libavutil      60. 26.101 / 60. 26.101
  libavcodec     62. 28.101 / 62. 28.101
  libavformat    62. 12.101 / 62. 12.101
  libavdevice    62.  3.101 / 62.  3.101
  libavfilter    11. 14.101 / 11. 14.101
  libswscale      9.  5.101 /  9.  5.101
  libswresample   6.  3.101 /  6.  3.101
Input #0, mpeg, from 'data/raw/D28_hrbr_art_20260518_083132.mp4':
  Duration: 01:17:30.51, start: 25155.817000, bitrate: 1828 kb/s
  Stream #0:0[0x1e0]: Video: hevc (Main), yuvj420p(pc, bt709), 1920x1080, 25 fps, 25 tbr, 90k tbn, start 25155.817000
  Stream #0:1[0x1c0]: Audio: pcm_mulaw, 8000 Hz, mono, s16, 64 kb/s, start 25155.844000
Input #1, mpeg, from 'data/raw/D28_hrbr_art_20260518_094903.mp4':
  Duration: 01:15:26.49, start: 29806.275000, bitrate: 1879 kb/s
  Stream #1:0[0x1e0]: Video: hevc (Main), yuvj420p(pc, bt709), 1920x1080, 25 fps, 25 tbr, 90k tbn, start 29806.275000
  Stream #1:1[0x1c0]: Audio: pcm_mulaw, 8000 Hz, mono, s16, 64 kb/s, start 29806.324000
Stream mapping:
  Stream #0:0 (hevc) -> concat
  Stream #0:1 (pcm_mulaw) -> concat
  Stream #1:0 (hevc) -> concat
  Stream #1:1 (pcm_mulaw) -> concat
  scale:default -> Stream #0:0 (libx264)
  concat -> Stream #0:1 (aac)
Press [q] to stop, [?] for help
[swscaler @ 0x110400000] deprecated pixel format used, make sure you did set range correctly
[aac @ 0x12a60c2c0] Too many bits 12288.000000 > 6144 per frame requested, clamping to max
[libx264 @ 0x12a60b800] using cpu capabilities: ARMv8 NEON DotProd I8MM
[libx264 @ 0x12a60b800] profile High, level 3.1, 4:2:0, 8-bit
[libx264 @ 0x12a60b800] 264 - core 165 r3222 b35605a - H.264/MPEG-4 AVC codec - Copyleft 2003-2025 - http://www.videolan.org/x264.html - options: cabac=1 ref=2 deblock=1:0:0 analyse=0x3:0x113 me=hex subme=6 psy=1 psy_rd=1.00:0.00 mixed_ref=1 me_range=16 chroma_me=1 trellis=1 8x8dct=1 cqm=0 deadzone=21,11 fast_pskip=1 chroma_qp_offset=-2 threads=12 lookahead_threads=2 sliced_threads=0 nr=0 decimate=1 interlaced=0 bluray_compat=0 constrained_intra=0 bframes=3 b_pyramid=2 b_adapt=1 b_bias=0 direct=1 weightb=1 open_gop=0 weightp=1 keyint=250 keyint_min=25 scenecut=40 intra_refresh=0 rc_lookahead=30 rc=crf mbtree=1 crf=28.0 qcomp=0.60 qpmin=0 qpmax=69 qpstep=4 ip_ratio=1.40 aq=1:1.00
Output #0, mp4, to 'data/art_rubric_runs/2026-06-04_122309/1a_combined.mp4':
  Metadata:
    encoder         : Lavf62.12.101
  Stream #0:0: Video: h264 (avc1 / 0x31637661), yuvj420p(pc, bt709, progressive), 1280x720, q=2-31, 25 fps, 12800 tbn
    Metadata:
      encoder         : Lavc62.28.101 libx264
    Side data:
      CPB properties: bitrate max/min/avg: 0/0/0 buffer size: 0 vbv_delay: N/A
  Stream #0:1: Audio: aac (LC) (mp4a / 0x6134706D), 8000 Hz, mono, fltp, 48 kb/s
    Metadata:
      encoder         : Lavc62.28.101 aac
frame=  129 fps=0.0 q=33.0 size=     256KiB time=00:00:05.08 bitrate= 412.9kbits/s speed=10.1x elapsed=0:00:00.50    frame=  332 fps=328 q=33.0 size=     512KiB time=00:00:13.20 bitrate= 317.8kbits/s speed=13.1x elapsed=0:00:01.01    frame=  538 fps=355 q=33.0 size=     768KiB time=00:00:21.44 bitrate= 293.5kbits/s speed=14.1x elapsed=0:00:01.51    frame=  748 fps=370 q=33.0 size=    1024KiB time=00:00:29.84 bitrate= 281.1kbits/s speed=14.8x elapsed=0:00:02.01    frame=  947 fps=375 q=33.0 size=    1536KiB time=00:00:37.80 bitrate= 332.9kbits/s speed=  15x elapsed=0:00:02.52    frame= 1150 fps=380 q=33.0 size=    1792KiB time=00:00:45.92 bitrate= 319.7kbits/s speed=15.2x elapsed=0:00:03.02    frame= 1354 fps=383 q=33.0 size=    2304KiB time=00:00:54.08 bitrate= 349.0kbits/s speed=15.3x elapsed=0:00:03.53    frame= 1552 fps=384 q=33.0 size=    2560KiB time=00:01:02.00 bitrate= 338.3kbits/s speed=15.3x elapsed=0:00:04.03    frame= 1750 fps=385 q=33.0 size=    2816KiB time=00:01:09.92 bitrate= 329.9kbits/s speed=15.4x elapsed=0:00:04.54    frame= 1951 fps=387 q=33.0 size=    3072KiB time=00:01:17.96 bitrate= 322.8kbits/s speed=15.4x elapsed=0:00:05.04    frame= 2147 fps=387 q=33.0 size=    3328KiB time=00:01:25.80 bitrate= 317.8kbits/s speed=15.5x elapsed=0:00:05.55    frame= 2347 fps=388 q=33.0 size=    3840KiB time=00:01:33.80 bitrate= 335.4kbits/s speed=15.5x elapsed=0:00:06.05    frame= 2551 fps=389 q=33.0 size=    4096KiB time=00:01:41.96 bitrate= 329.1kbits/s speed=15.5x elapsed=0:00:06.56    frame= 2756 fps=390 q=33.0 size=    4608KiB time=00:01:50.16 bitrate= 342.7kbits/s speed=15.6x elapsed=0:00:07.06    frame= 2962 fps=391 q=33.0 size=    4864KiB time=00:01:58.40 bitrate= 336.5kbits/s speed=15.6x elapsed=0:00:07.57    frame= 3168 fps=392 q=33.0 size=    5120KiB time=00:02:06.68 bitrate= 331.1kbits/s speed=15.7x elapsed=0:00:08.07    frame= 3365 fps=392 q=33.0 size=    5376KiB time=00:02:14.52 bitrate= 327.4kbits/s speed=15.7x elapsed=0:00:08.57    frame= 3570 fps=393 q=33.0 size=    5888KiB time=00:02:22.72 bitrate= 338.0kbits/s speed=15.7x elapsed=0:00:09.08    frame= 3778 fps=394 q=33.0 size=    6144KiB time=00:02:31.04 bitrate= 333.2kbits/s speed=15.8x elapsed=0:00:09.58    frame= 3987 fps=395 q=33.0 size=    6400KiB time=00:02:39.44 bitrate= 328.8kbits/s speed=15.8x elapsed=0:00:10.09    frame= 4203 fps=397 q=33.0 size=    6656KiB time=00:02:48.04 bitrate= 324.5kbits/s speed=15.9x elapsed=0:00:10.59    frame= 4388 fps=395 q=33.0 size=    7168KiB time=00:02:55.44 bitrate= 334.7kbits/s speed=15.8x elapsed=0:00:11.10    frame= 4576 fps=394 q=33.0 size=    7424KiB time=00:03:02.96 bitrate= 332.4kbits/s speed=15.8x elapsed=0:00:11.60    frame= 4774 fps=394 q=33.0 size=    7680KiB time=00:03:10.88 bitrate= 329.6kbits/s speed=15.8x elapsed=0:00:12.11    frame= 4980 fps=395 q=33.0 size=    7936KiB time=00:03:19.12 bitrate= 326.5kbits/s speed=15.8x elapsed=0:00:12.61    frame= 5182 fps=395 q=33.0 size=    8192KiB time=00:03:27.24 bitrate= 323.8kbits/s speed=15.8x elapsed=0:00:13.11    frame= 5387 fps=395 q=33.0 size=    8704KiB time=00:03:35.44 bitrate= 331.0kbits/s speed=15.8x elapsed=0:00:13.62    frame= 5592 fps=396 q=33.0 size=    8960KiB time=00:03:43.64 bitrate= 328.2kbits/s speed=15.8x elapsed=0:00:14.12    frame= 5794 fps=396 q=33.0 size=    9472KiB time=00:03:51.72 bitrate= 334.9kbits/s speed=15.8x elapsed=0:00:14.63    frame= 6000 fps=396 q=33.0 size=    9472KiB time=00:03:59.96 bitrate= 323.4kbits/s speed=15.8x elapsed=0:00:15.13    frame= 6207 fps=397 q=33.0 size=    9984KiB time=00:04:08.24 bitrate= 329.5kbits/s speed=15.9x elapsed=0:00:15.64    frame= 6417 fps=397 q=33.0 size=   10240KiB time=00:04:16.64 bitrate= 326.9kbits/s speed=15.9x elapsed=0:00:16.15    frame= 6626 fps=398 q=33.0 size=   10752KiB time=00:04:25.00 bitrate= 332.4kbits/s speed=15.9x elapsed=0:00:16.65    frame= 6826 fps=398 q=33.0 size=   11008KiB time=00:04:33.00 bitrate= 330.3kbits/s speed=15.9x elapsed=0:00:17.15    frame= 7000 fps=396 q=33.0 size=   11264KiB time=00:04:39.96 bitrate= 329.6kbits/s speed=15.9x elapsed=0:00:17.65    frame= 7195 fps=396 q=33.0 size=   11520KiB time=00:04:47.76 bitrate= 328.0kbits/s speed=15.8x elapsed=0:00:18.16    frame= 7397 fps=396 q=33.0 size=   11776KiB time=00:04:55.84 bitrate= 326.1kbits/s speed=15.9x elapsed=0:00:18.66    frame= 7602 fps=397 q=33.0 size=   12288KiB time=00:05:04.04 bitrate= 331.1kbits/s speed=15.9x elapsed=0:00:19.16    frame= 7800 fps=396 q=33.0 size=   12544KiB time=00:05:11.96 bitrate= 329.4kbits/s speed=15.9x elapsed=0:00:19.67    frame= 8004 fps=397 q=33.0 size=   12800KiB time=00:05:20.16 bitrate= 327.5kbits/s speed=15.9x elapsed=0:00:20.17    frame= 8216 fps=397 q=33.0 size=   13056KiB time=00:05:28.60 bitrate= 325.5kbits/s speed=15.9x elapsed=0:00:20.68    frame= 8425 fps=398 q=33.0 size=   13568KiB time=00:05:36.96 bitrate= 329.9kbits/s speed=15.9x elapsed=0:00:21.18    frame= 8624 fps=398 q=33.0 size=   13824KiB time=00:05:44.92 bitrate= 328.3kbits/s speed=15.9x elapsed=0:00:21.68    frame= 8830 fps=398 q=33.0 size=   14080KiB time=00:05:53.16 bitrate= 326.6kbits/s speed=15.9x elapsed=0:00:22.19    frame= 9019 fps=397 q=33.0 size=   14592KiB time=00:06:00.72 bitrate= 331.4kbits/s speed=15.9x elapsed=0:00:22.69    frame= 9218 fps=397 q=33.0 size=   14592KiB time=00:06:08.68 bitrate= 324.2kbits/s speed=15.9x elapsed=0:00:23.19    frame= 9424 fps=398 q=33.0 size=   15104KiB time=00:06:16.92 bitrate= 328.3kbits/s speed=15.9x elapsed=0:00:23.70    frame= 9597 fps=396 q=33.0 size=   15360KiB time=00:06:23.84 bitrate= 327.8kbits/s speed=15.9x elapsed=0:00:24.20    frame= 9785 fps=396 q=33.0 size=   15616KiB time=00:06:31.36 bitrate= 326.9kbits/s speed=15.8x elapsed=0:00:24.70    frame= 9977 fps=396 q=33.0 size=   15872KiB time=00:06:39.04 bitrate= 325.8kbits/s speed=15.8x elapsed=0:00:25.21    frame=10179 fps=396 q=33.0 size=   16128KiB time=00:06:47.12 bitrate= 324.5kbits/s speed=15.8x elapsed=0:00:25.71    frame=10385 fps=396 q=33.0 size=   16640KiB time=00:06:55.36 bitrate= 328.2kbits/s speed=15.8x elapsed=0:00:26.22    frame=10586 fps=396 q=33.0 size=   16896KiB time=00:07:03.40 bitrate= 326.9kbits/s speed=15.8x elapsed=0:00:26.72    frame=10792 fps=396 q=33.0 size=   17408KiB time=00:07:11.64 bitrate= 330.4kbits/s speed=15.9x elapsed=0:00:27.22    frame=11000 fps=397 q=33.0 size=   17408KiB time=00:07:19.96 bitrate= 324.1kbits/s speed=15.9x elapsed=0:00:27.72    frame=11202 fps=397 q=33.0 size=   17920KiB time=00:07:28.04 bitrate= 327.7kbits/s speed=15.9x elapsed=0:00:28.23    frame=11405 fps=397 q=33.0 size=   18176KiB time=00:07:36.16 bitrate= 326.4kbits/s speed=15.9x elapsed=0:00:28.73    frame=11612 fps=397 q=33.0 size=   18688KiB time=00:07:44.44 bitrate= 329.6kbits/s speed=15.9x elapsed=0:00:29.24    frame=11815 fps=397 q=33.0 size=   18944KiB time=00:07:52.56 bitrate= 328.4kbits/s speed=15.9x elapsed=0:00:29.74    frame=12009 fps=397 q=33.0 size=   19200KiB time=00:08:00.32 bitrate= 327.5kbits/s speed=15.9x elapsed=0:00:30.24    frame=12215 fps=397 q=33.0 size=   19456KiB time=00:08:08.56 bitrate= 326.2kbits/s speed=15.9x elapsed=0:00:30.75    frame=12396 fps=397 q=33.0 size=   19968KiB time=00:08:15.80 bitrate= 329.9kbits/s speed=15.9x elapsed=0:00:31.25    frame=12598 fps=397 q=33.0 size=   20224KiB time=00:08:23.88 bitrate= 328.8kbits/s speed=15.9x elapsed=0:00:31.76    frame=12802 fps=397 q=33.0 size=   20736KiB time=00:08:32.08 bitrate= 331.7kbits/s speed=15.9x elapsed=0:00:32.26    frame=13000 fps=397 q=33.0 size=   20736KiB time=00:08:39.96 bitrate= 326.7kbits/s speed=15.9x elapsed=0:00:32.77    frame=13203 fps=397 q=33.0 size=   21248KiB time=00:08:48.08 bitrate= 329.6kbits/s speed=15.9x elapsed=0:00:33.27    frame=13409 fps=397 q=33.0 size=   21504KiB time=00:08:56.32 bitrate= 328.5kbits/s speed=15.9x elapsed=0:00:33.78    frame=13601 fps=397 q=33.0 size=   22016KiB time=00:09:04.00 bitrate= 331.5kbits/s speed=15.9x elapsed=0:00:34.28    frame=13797 fps=397 q=33.0 size=   22272KiB time=00:09:11.84 bitrate= 330.6kbits/s speed=15.9x elapsed=0:00:34.78    frame=14002 fps=397 q=33.0 size=   22528KiB time=00:09:20.04 bitrate= 329.5kbits/s speed=15.9x elapsed=0:00:35.29    frame=14210 fps=397 q=33.0 size=   22784KiB time=00:09:28.36 bitrate= 328.4kbits/s speed=15.9x elapsed=0:00:35.79    frame=14397 fps=397 q=33.0 size=   23040KiB time=00:09:35.84 bitrate= 327.8kbits/s speed=15.9x elapsed=0:00:36.30    frame=14590 fps=396 q=33.0 size=   23552KiB time=00:09:43.56 bitrate= 330.6kbits/s speed=15.9x elapsed=0:00:36.80    frame=14784 fps=396 q=33.0 size=   23808KiB time=00:09:51.32 bitrate= 329.8kbits/s speed=15.9x elapsed=0:00:37.30    frame=14964 fps=396 q=33.0 size=   24064KiB time=00:09:58.52 bitrate= 329.4kbits/s speed=15.8x elapsed=0:00:37.81    frame=15147 fps=395 q=33.0 size=   24320KiB time=00:10:05.84 bitrate= 328.8kbits/s speed=15.8x elapsed=0:00:38.31    frame=15349 fps=395 q=33.0 size=   24576KiB time=00:10:13.96 bitrate= 327.9kbits/s speed=15.8x elapsed=0:00:38.82    frame=15522 fps=395 q=33.0 size=   25088KiB time=00:10:20.92 bitrate= 331.0kbits/s speed=15.8x elapsed=0:00:39.32    frame=15716 fps=395 q=33.0 size=   25344KiB time=00:10:28.64 bitrate= 330.3kbits/s speed=15.8x elapsed=0:00:39.83    frame=15903 fps=394 q=33.0 size=   25600KiB time=00:10:36.12 bitrate= 329.7kbits/s speed=15.8x elapsed=0:00:40.33    frame=16094 fps=394 q=33.0 size=   25856KiB time=00:10:43.76 bitrate= 329.0kbits/s speed=15.8x elapsed=0:00:40.83    frame=16287 fps=394 q=33.0 size=   26368KiB time=00:10:51.48 bitrate= 331.6kbits/s speed=15.8x elapsed=0:00:41.34    frame=16456 fps=393 q=33.0 size=   26368KiB time=00:10:58.24 bitrate= 328.2kbits/s speed=15.7x elapsed=0:00:41.84    frame=16642 fps=393 q=33.0 size=   26880KiB time=00:11:05.68 bitrate= 330.8kbits/s speed=15.7x elapsed=0:00:42.35    frame=16816 fps=392 q=33.0 size=   27136KiB time=00:11:12.64 bitrate= 330.5kbits/s speed=15.7x elapsed=0:00:42.85    frame=17006 fps=392 q=33.0 size=   27648KiB time=00:11:20.24 bitrate= 333.0kbits/s speed=15.7x elapsed=0:00:43.35    frame=17212 fps=392 q=33.0 size=   27648KiB time=00:11:28.48 bitrate= 329.0kbits/s speed=15.7x elapsed=0:00:43.85    frame=17407 fps=392 q=33.0 size=   28160KiB time=00:11:36.28 bitrate= 331.3kbits/s speed=15.7x elapsed=0:00:44.35    frame=17604 fps=392 q=33.0 size=   28416KiB time=00:11:44.16 bitrate= 330.6kbits/s speed=15.7x elapsed=0:00:44.86    frame=17800 fps=392 q=33.0 size=   28928KiB time=00:11:52.00 bitrate= 332.8kbits/s speed=15.7x elapsed=0:00:45.36    frame=18000 fps=392 q=33.0 size=   29184KiB time=00:12:00.00 bitrate= 332.0kbits/s speed=15.7x elapsed=0:00:45.86    frame=18202 fps=393 q=33.0 size=   29440KiB time=00:12:08.08 bitrate= 331.2kbits/s speed=15.7x elapsed=0:00:46.37    frame=18400 fps=393 q=33.0 size=   29696KiB time=00:12:16.00 bitrate= 330.5kbits/s speed=15.7x elapsed=0:00:46.87    frame=18594 fps=392 q=33.0 size=   30208KiB time=00:12:23.76 bitrate= 332.7kbits/s speed=15.7x elapsed=0:00:47.38    frame=18792 fps=392 q=33.0 size=   30464KiB time=00:12:31.68 bitrate= 332.0kbits/s speed=15.7x elapsed=0:00:47.88    frame=18967 fps=392 q=33.0 size=   30720KiB time=00:12:38.68 bitrate= 331.7kbits/s speed=15.7x elapsed=0:00:48.39    frame=19148 fps=392 q=33.0 size=   31232KiB time=00:12:45.92 bitrate= 334.0kbits/s speed=15.7x elapsed=0:00:48.89    frame=19321 fps=391 q=33.0 size=   31488KiB time=00:12:52.84 bitrate= 333.8kbits/s speed=15.6x elapsed=0:00:49.40    frame=19500 fps=391 q=33.0 size=   31744KiB time=00:13:00.00 bitrate= 333.4kbits/s speed=15.6x elapsed=0:00:49.90    frame=19676 fps=390 q=33.0 size=   32000KiB time=00:13:07.04 bitrate= 333.1kbits/s speed=15.6x elapsed=0:00:50.41    frame=19830 fps=389 q=33.0 size=   32512KiB time=00:13:13.20 bitrate= 335.8kbits/s speed=15.6x elapsed=0:00:50.91    frame=19964 fps=388 q=33.0 size=   32768KiB time=00:13:18.56 bitrate= 336.1kbits/s speed=15.5x elapsed=0:00:51.42    frame=20102 fps=387 q=33.0 size=   33280KiB time=00:13:24.08 bitrate= 339.1kbits/s speed=15.5x elapsed=0:00:51.92    frame=20255 fps=386 q=33.0 size=   33792KiB time=00:13:30.20 bitrate= 341.7kbits/s speed=15.5x elapsed=0:00:52.42    frame=20426 fps=386 q=33.0 size=   34048KiB time=00:13:37.04 bitrate= 341.4kbits/s speed=15.4x elapsed=0:00:52.93    frame=20571 fps=385 q=33.0 size=   34560KiB time=00:13:42.84 bitrate= 344.1kbits/s speed=15.4x elapsed=0:00:53.43    frame=20692 fps=384 q=33.0 size=   35328KiB time=00:13:47.68 bitrate= 349.7kbits/s speed=15.3x elapsed=0:00:53.93    frame=20861 fps=383 q=33.0 size=   35840KiB time=00:13:54.44 bitrate= 351.9kbits/s speed=15.3x elapsed=0:00:54.44    frame=21046 fps=383 q=33.0 size=   36096KiB time=00:14:01.84 bitrate= 351.3kbits/s speed=15.3x elapsed=0:00:54.94    frame=21234 fps=383 q=33.0 size=   36608KiB time=00:14:09.36 bitrate= 353.1kbits/s speed=15.3x elapsed=0:00:55.44    frame=21405 fps=383 q=33.0 size=   37120KiB time=00:14:16.20 bitrate= 355.2kbits/s speed=15.3x elapsed=0:00:55.94    frame=21599 fps=383 q=33.0 size=   37632KiB time=00:14:23.96 bitrate= 356.8kbits/s speed=15.3x elapsed=0:00:56.45    frame=21768 fps=382 q=33.0 size=   38144KiB time=00:14:30.72 bitrate= 358.9kbits/s speed=15.3x elapsed=0:00:56.95    frame=21962 fps=382 q=33.0 size=   38400KiB time=00:14:38.48 bitrate= 358.1kbits/s speed=15.3x elapsed=0:00:57.46    frame=22134 fps=382 q=33.0 size=   38656KiB time=00:14:45.36 bitrate= 357.7kbits/s speed=15.3x elapsed=0:00:57.96    frame=22250 fps=381 q=33.0 size=   39168KiB time=00:14:50.00 bitrate= 360.5kbits/s speed=15.2x elapsed=0:00:58.47    frame=22409 fps=380 q=33.0 size=   39424KiB time=00:14:56.36 bitrate= 360.3kbits/s speed=15.2x elapsed=0:00:58.98    frame=22574 fps=380 q=33.0 size=   39936KiB time=00:15:02.96 bitrate= 362.3kbits/s speed=15.2x elapsed=0:00:59.48    frame=22718 fps=379 q=33.0 size=   40192KiB time=00:15:08.72 bitrate= 362.3kbits/s speed=15.1x elapsed=0:00:59.98    frame=22859 fps=378 q=33.0 size=   40448KiB time=00:15:14.36 bitrate= 362.4kbits/s speed=15.1x elapsed=0:01:00.48    frame=22982 fps=377 q=33.0 size=   40704KiB time=00:15:19.36 bitrate= 362.7kbits/s speed=15.1x elapsed=0:01:00.99    frame=23128 fps=376 q=33.0 size=   40960KiB time=00:15:25.12 bitrate= 362.7kbits/s speed=  15x elapsed=0:01:01.49    frame=23262 fps=375 q=33.0 size=   41472KiB time=00:15:30.48 bitrate= 365.1kbits/s speed=  15x elapsed=0:01:02.00    frame=23451 fps=375 q=33.0 size=   41728KiB time=00:15:38.04 bitrate= 364.4kbits/s speed=  15x elapsed=0:01:02.50    frame=23647 fps=375 q=33.0 size=   41984KiB time=00:15:45.88 bitrate= 363.6kbits/s speed=  15x elapsed=0:01:03.01    frame=23840 fps=375 q=33.0 size=   42496KiB time=00:15:53.60 bitrate= 365.1kbits/s speed=  15x elapsed=0:01:03.51    frame=24017 fps=375 q=33.0 size=   43008KiB time=00:16:00.68 bitrate= 366.7kbits/s speed=  15x elapsed=0:01:04.02    frame=24195 fps=375 q=33.0 size=   43264KiB time=00:16:07.80 bitrate= 366.2kbits/s speed=  15x elapsed=0:01:04.52    frame=24367 fps=375 q=33.0 size=   43776KiB time=00:16:14.68 bitrate= 367.9kbits/s speed=  15x elapsed=0:01:05.03    frame=24550 fps=375 q=33.0 size=   44032KiB time=00:16:22.00 bitrate= 367.3kbits/s speed=  15x elapsed=0:01:05.53    frame=24728 fps=374 q=33.0 size=   44288KiB time=00:16:29.12 bitrate= 366.8kbits/s speed=  15x elapsed=0:01:06.04    frame=24903 fps=374 q=33.0 size=   44800KiB time=00:16:36.12 bitrate= 368.4kbits/s speed=  15x elapsed=0:01:06.54    frame=25049 fps=374 q=33.0 size=   45312KiB time=00:16:41.96 bitrate= 370.5kbits/s speed=14.9x elapsed=0:01:07.05    frame=25207 fps=373 q=33.0 size=   45568KiB time=00:16:48.28 bitrate= 370.2kbits/s speed=14.9x elapsed=0:01:07.55    frame=25375 fps=373 q=33.0 size=   46080KiB time=00:16:55.04 bitrate= 371.9kbits/s speed=14.9x elapsed=0:01:08.06    frame=25564 fps=373 q=33.0 size=   46336KiB time=00:17:02.60 bitrate= 371.2kbits/s speed=14.9x elapsed=0:01:08.57    frame=25750 fps=373 q=33.0 size=   46848KiB time=00:17:10.04 bitrate= 372.6kbits/s speed=14.9x elapsed=0:01:09.07    frame=25949 fps=373 q=33.0 size=   47104KiB time=00:17:18.00 bitrate= 371.7kbits/s speed=14.9x elapsed=0:01:09.58    frame=26137 fps=373 q=33.0 size=   47616KiB time=00:17:25.52 bitrate= 373.1kbits/s speed=14.9x elapsed=0:01:10.08    frame=26283 fps=372 q=33.0 size=   48128KiB time=00:17:31.36 bitrate= 375.0kbits/s speed=14.9x elapsed=0:01:10.58    frame=26381 fps=371 q=33.0 size=   48384KiB time=00:17:35.28 bitrate= 375.6kbits/s speed=14.8x elapsed=0:01:11.09    frame=26503 fps=370 q=33.0 size=   48640KiB time=00:17:40.20 bitrate= 375.8kbits/s speed=14.8x elapsed=0:01:11.59    frame=26680 fps=370 q=33.0 size=   48896KiB time=00:17:47.24 bitrate= 375.3kbits/s speed=14.8x elapsed=0:01:12.10    frame=26872 fps=370 q=33.0 size=   49408KiB time=00:17:54.92 bitrate= 376.5kbits/s speed=14.8x elapsed=0:01:12.60    frame=27060 fps=370 q=33.0 size=   49664KiB time=00:18:02.44 bitrate= 375.9kbits/s speed=14.8x elapsed=0:01:13.11    frame=27219 fps=370 q=33.0 size=   49920KiB time=00:18:08.80 bitrate= 375.6kbits/s speed=14.8x elapsed=0:01:13.61    frame=27392 fps=370 q=33.0 size=   50432KiB time=00:18:15.72 bitrate= 377.0kbits/s speed=14.8x elapsed=0:01:14.11    frame=27582 fps=370 q=33.0 size=   50944KiB time=00:18:23.32 bitrate= 378.3kbits/s speed=14.8x elapsed=0:01:14.62    frame=27771 fps=370 q=33.0 size=   51456KiB time=00:18:30.88 bitrate= 379.5kbits/s speed=14.8x elapsed=0:01:15.12    frame=27961 fps=370 q=33.0 size=   51712KiB time=00:18:38.48 bitrate= 378.8kbits/s speed=14.8x elapsed=0:01:15.63    frame=28145 fps=370 q=33.0 size=   51968KiB time=00:18:45.84 bitrate= 378.1kbits/s speed=14.8x elapsed=0:01:16.13    frame=28338 fps=370 q=33.0 size=   52480KiB time=00:18:53.56 bitrate= 379.3kbits/s speed=14.8x elapsed=0:01:16.64    frame=28500 fps=369 q=33.0 size=   52480KiB time=00:19:00.04 bitrate= 377.1kbits/s speed=14.8x elapsed=0:01:17.14    frame=28677 fps=369 q=33.0 size=   52992KiB time=00:19:07.12 bitrate= 378.4kbits/s speed=14.8x elapsed=0:01:17.65    frame=28817 fps=369 q=33.0 size=   53504KiB time=00:19:12.72 bitrate= 380.2kbits/s speed=14.7x elapsed=0:01:18.15    frame=28970 fps=368 q=33.0 size=   53760KiB time=00:19:18.84 bitrate= 380.0kbits/s speed=14.7x elapsed=0:01:18.65    frame=29149 fps=368 q=33.0 size=   54016KiB time=00:19:26.00 bitrate= 379.5kbits/s speed=14.7x elapsed=0:01:19.16    frame=29305 fps=368 q=33.0 size=   54528KiB time=00:19:32.24 bitrate= 381.1kbits/s speed=14.7x elapsed=0:01:19.66    frame=29489 fps=368 q=33.0 size=   54784KiB time=00:19:39.60 bitrate= 380.5kbits/s speed=14.7x elapsed=0:01:20.16    frame=29674 fps=368 q=33.0 size=   55296KiB time=00:19:47.00 bitrate= 381.6kbits/s speed=14.7x elapsed=0:01:20.67    frame=29853 fps=368 q=33.0 size=   55552KiB time=00:19:54.16 bitrate= 381.1kbits/s speed=14.7x elapsed=0:01:21.17    frame=30042 fps=368 q=33.0 size=   56064KiB time=00:20:01.72 bitrate= 382.2kbits/s speed=14.7x elapsed=0:01:21.68    frame=30234 fps=368 q=33.0 size=   56320KiB time=00:20:09.40 bitrate= 381.5kbits/s speed=14.7x elapsed=0:01:22.18    frame=30420 fps=368 q=33.0 size=   56832KiB time=00:20:16.84 bitrate= 382.6kbits/s speed=14.7x elapsed=0:01:22.69    frame=30600 fps=368 q=33.0 size=   57088KiB time=00:20:24.04 bitrate= 382.1kbits/s speed=14.7x elapsed=0:01:23.19    frame=30774 fps=368 q=33.0 size=   57600KiB time=00:20:31.00 bitrate= 383.3kbits/s speed=14.7x elapsed=0:01:23.70    frame=30949 fps=368 q=33.0 size=   57856KiB time=00:20:38.00 bitrate= 382.8kbits/s speed=14.7x elapsed=0:01:24.20    frame=31135 fps=368 q=33.0 size=   58368KiB time=00:20:45.44 bitrate= 383.9kbits/s speed=14.7x elapsed=0:01:24.71    frame=31321 fps=368 q=33.0 size=   58880KiB time=00:20:52.88 bitrate= 385.0kbits/s speed=14.7x elapsed=0:01:25.21    frame=31504 fps=368 q=33.0 size=   59392KiB time=00:21:00.20 bitrate= 386.1kbits/s speed=14.7x elapsed=0:01:25.72    frame=31695 fps=368 q=33.0 size=   59648KiB time=00:21:07.84 bitrate= 385.4kbits/s speed=14.7x elapsed=0:01:26.22    frame=31878 fps=368 q=33.0 size=   60160KiB time=00:21:15.16 bitrate= 386.5kbits/s speed=14.7x elapsed=0:01:26.73    frame=32062 fps=368 q=33.0 size=   60416KiB time=00:21:22.52 bitrate= 385.9kbits/s speed=14.7x elapsed=0:01:27.23    frame=32250 fps=368 q=33.0 size=   60928KiB time=00:21:30.04 bitrate= 386.9kbits/s speed=14.7x elapsed=0:01:27.74    frame=32426 fps=367 q=33.0 size=   61184KiB time=00:21:37.08 bitrate= 386.4kbits/s speed=14.7x elapsed=0:01:28.24    frame=32613 fps=367 q=33.0 size=   61696KiB time=00:21:44.56 bitrate= 387.4kbits/s speed=14.7x elapsed=0:01:28.75    frame=32796 fps=367 q=33.0 size=   62208KiB time=00:21:51.88 bitrate= 388.5kbits/s speed=14.7x elapsed=0:01:29.25    frame=32982 fps=367 q=33.0 size=   62464KiB time=00:21:59.32 bitrate= 387.9kbits/s speed=14.7x elapsed=0:01:29.76    frame=33157 fps=367 q=33.0 size=   62976KiB time=00:22:06.32 bitrate= 389.0kbits/s speed=14.7x elapsed=0:01:30.26    frame=33346 fps=367 q=33.0 size=   63488KiB time=00:22:13.88 bitrate= 389.9kbits/s speed=14.7x elapsed=0:01:30.77    frame=33528 fps=367 q=33.0 size=   64000KiB time=00:22:21.16 bitrate= 390.9kbits/s speed=14.7x elapsed=0:01:31.27    frame=33698 fps=367 q=33.0 size=   64256KiB time=00:22:27.96 bitrate= 390.5kbits/s speed=14.7x elapsed=0:01:31.78    frame=33850 fps=367 q=33.0 size=   64768KiB time=00:22:34.04 bitrate= 391.8kbits/s speed=14.7x elapsed=0:01:32.28    frame=33998 fps=366 q=33.0 size=   65280KiB time=00:22:39.96 bitrate= 393.2kbits/s speed=14.7x elapsed=0:01:32.78    frame=34144 fps=366 q=33.0 size=   65792KiB time=00:22:45.80 bitrate= 394.6kbits/s speed=14.6x elapsed=0:01:33.29    frame=34291 fps=366 q=33.0 size=   66560KiB time=00:22:51.68 bitrate= 397.5kbits/s speed=14.6x elapsed=0:01:33.79    frame=34442 fps=365 q=33.0 size=   66816KiB time=00:22:57.72 bitrate= 397.3kbits/s speed=14.6x elapsed=0:01:34.30    frame=34608 fps=365 q=33.0 size=   67328KiB time=00:23:04.36 bitrate= 398.4kbits/s speed=14.6x elapsed=0:01:34.80    frame=34796 fps=365 q=33.0 size=   67840KiB time=00:23:11.88 bitrate= 399.3kbits/s speed=14.6x elapsed=0:01:35.31    frame=34975 fps=365 q=33.0 size=   68352KiB time=00:23:19.04 bitrate= 400.2kbits/s speed=14.6x elapsed=0:01:35.81    frame=35160 fps=365 q=33.0 size=   68864KiB time=00:23:26.44 bitrate= 401.1kbits/s speed=14.6x elapsed=0:01:36.31    frame=35299 fps=365 q=33.0 size=   69120KiB time=00:23:32.00 bitrate= 401.0kbits/s speed=14.6x elapsed=0:01:36.82    frame=35473 fps=364 q=33.0 size=   69632KiB time=00:23:39.00 bitrate= 402.0kbits/s speed=14.6x elapsed=0:01:37.32    frame=35651 fps=364 q=33.0 size=   70144KiB time=00:23:46.12 bitrate= 402.9kbits/s speed=14.6x elapsed=0:01:37.83    frame=35831 fps=364 q=33.0 size=   70656KiB time=00:23:53.32 bitrate= 403.8kbits/s speed=14.6x elapsed=0:01:38.33    frame=36009 fps=364 q=33.0 size=   71168KiB time=00:24:00.44 bitrate= 404.7kbits/s speed=14.6x elapsed=0:01:38.83    frame=36193 fps=364 q=33.0 size=   71680KiB time=00:24:07.80 bitrate= 405.6kbits/s speed=14.6x elapsed=0:01:39.33    frame=36372 fps=364 q=33.0 size=   72192KiB time=00:24:14.96 bitrate= 406.5kbits/s speed=14.6x elapsed=0:01:39.84    frame=36550 fps=364 q=33.0 size=   72704KiB time=00:24:22.08 bitrate= 407.4kbits/s speed=14.6x elapsed=0:01:40.34    frame=36732 fps=364 q=33.0 size=   72960KiB time=00:24:29.36 bitrate= 406.8kbits/s speed=14.6x elapsed=0:01:40.84    frame=36908 fps=364 q=33.0 size=   73472KiB time=00:24:36.40 bitrate= 407.7kbits/s speed=14.6x elapsed=0:01:41.34    frame=37088 fps=364 q=33.0 size=   73984KiB time=00:24:43.60 bitrate= 408.5kbits/s speed=14.6x elapsed=0:01:41.85    frame=37259 fps=364 q=33.0 size=   74496KiB time=00:24:50.44 bitrate= 409.5kbits/s speed=14.6x elapsed=0:01:42.35    frame=37440 fps=364 q=33.0 size=   75008KiB time=00:24:57.68 bitrate= 410.3kbits/s speed=14.6x elapsed=0:01:42.86    frame=37620 fps=364 q=33.0 size=   75520KiB time=00:25:04.88 bitrate= 411.1kbits/s speed=14.6x elapsed=0:01:43.36    frame=37784 fps=364 q=33.0 size=   76288KiB time=00:25:11.44 bitrate= 413.5kbits/s speed=14.6x elapsed=0:01:43.87    frame=37957 fps=364 q=33.0 size=   76544KiB time=00:25:18.36 bitrate= 413.0kbits/s speed=14.5x elapsed=0:01:44.37    frame=38126 fps=364 q=33.0 size=   77312KiB time=00:25:25.12 bitrate= 415.3kbits/s speed=14.5x elapsed=0:01:44.87    frame=38299 fps=363 q=33.0 size=   77824KiB time=00:25:32.08 bitrate= 416.1kbits/s speed=14.5x elapsed=0:01:45.38    frame=38465 fps=363 q=33.0 size=   78336KiB time=00:25:38.68 bitrate= 417.1kbits/s speed=14.5x elapsed=0:01:45.88    frame=38637 fps=363 q=33.0 size=   78848KiB time=00:25:45.56 bitrate= 417.9kbits/s speed=14.5x elapsed=0:01:46.39    frame=38809 fps=363 q=33.0 size=   79360KiB time=00:25:52.44 bitrate= 418.8kbits/s speed=14.5x elapsed=0:01:46.89    frame=38989 fps=363 q=33.0 size=   79872KiB time=00:25:59.64 bitrate= 419.5kbits/s speed=14.5x elapsed=0:01:47.40    frame=39173 fps=363 q=33.0 size=   80384KiB time=00:26:07.00 bitrate= 420.2kbits/s speed=14.5x elapsed=0:01:47.90    frame=39343 fps=363 q=33.0 size=   80896KiB time=00:26:13.80 bitrate= 421.1kbits/s speed=14.5x elapsed=0:01:48.41    frame=39507 fps=363 q=33.0 size=   81408KiB time=00:26:20.36 bitrate= 422.0kbits/s speed=14.5x elapsed=0:01:48.91    frame=39677 fps=363 q=33.0 size=   81664KiB time=00:26:27.16 bitrate= 421.5kbits/s speed=14.5x elapsed=0:01:49.41    frame=39852 fps=363 q=33.0 size=   82176KiB time=00:26:34.16 bitrate= 422.3kbits/s speed=14.5x elapsed=0:01:49.91    frame=40022 fps=362 q=33.0 size=   82688KiB time=00:26:40.96 bitrate= 423.1kbits/s speed=14.5x elapsed=0:01:50.42    frame=40199 fps=362 q=33.0 size=   83200KiB time=00:26:48.04 bitrate= 423.9kbits/s speed=14.5x elapsed=0:01:50.92    frame=40377 fps=362 q=33.0 size=   83712KiB time=00:26:55.16 bitrate= 424.6kbits/s speed=14.5x elapsed=0:01:51.43    frame=40549 fps=362 q=33.0 size=   84224KiB time=00:27:02.04 bitrate= 425.4kbits/s speed=14.5x elapsed=0:01:51.94    frame=40718 fps=362 q=33.0 size=   84480KiB time=00:27:08.80 bitrate= 424.9kbits/s speed=14.5x elapsed=0:01:52.44    frame=40867 fps=362 q=33.0 size=   84992KiB time=00:27:14.76 bitrate= 425.9kbits/s speed=14.5x elapsed=0:01:52.94    frame=41044 fps=362 q=33.0 size=   85504KiB time=00:27:21.84 bitrate= 426.6kbits/s speed=14.5x elapsed=0:01:53.44    frame=41212 fps=362 q=33.0 size=   86016KiB time=00:27:28.56 bitrate= 427.4kbits/s speed=14.5x elapsed=0:01:53.95    frame=41354 fps=361 q=33.0 size=   86528KiB time=00:27:34.24 bitrate= 428.5kbits/s speed=14.5x elapsed=0:01:54.45    frame=41518 fps=361 q=33.0 size=   86784KiB time=00:27:40.80 bitrate= 428.1kbits/s speed=14.4x elapsed=0:01:54.96    frame=41684 fps=361 q=33.0 size=   87296KiB time=00:27:47.44 bitrate= 428.9kbits/s speed=14.4x elapsed=0:01:55.46    frame=41848 fps=361 q=33.0 size=   87808KiB time=00:27:54.00 bitrate= 429.7kbits/s speed=14.4x elapsed=0:01:55.96    frame=42012 fps=361 q=33.0 size=   88320KiB time=00:28:00.56 bitrate= 430.5kbits/s speed=14.4x elapsed=0:01:56.47    frame=42162 fps=360 q=33.0 size=   88576KiB time=00:28:06.56 bitrate= 430.2kbits/s speed=14.4x elapsed=0:01:56.97    frame=42327 fps=360 q=33.0 size=   89088KiB time=00:28:13.16 bitrate= 431.0kbits/s speed=14.4x elapsed=0:01:57.47    frame=42482 fps=360 q=33.0 size=   89344KiB time=00:28:19.36 bitrate= 430.7kbits/s speed=14.4x elapsed=0:01:57.98    frame=42640 fps=360 q=33.0 size=   90112KiB time=00:28:25.68 bitrate= 432.8kbits/s speed=14.4x elapsed=0:01:58.48    frame=42792 fps=360 q=33.0 size=   90624KiB time=00:28:31.76 bitrate= 433.7kbits/s speed=14.4x elapsed=0:01:58.98    frame=42979 fps=360 q=33.0 size=   90880KiB time=00:28:39.24 bitrate= 433.0kbits/s speed=14.4x elapsed=0:01:59.49    frame=43145 fps=360 q=33.0 size=   91392KiB time=00:28:45.88 bitrate= 433.8kbits/s speed=14.4x elapsed=0:01:59.99    frame=43318 fps=359 q=33.0 size=   91904KiB time=00:28:52.80 bitrate= 434.5kbits/s speed=14.4x elapsed=0:02:00.50    frame=43495 fps=359 q=33.0 size=   92416KiB time=00:28:59.88 bitrate= 435.1kbits/s speed=14.4x elapsed=0:02:01.00    frame=43652 fps=359 q=33.0 size=   92928KiB time=00:29:06.16 bitrate= 436.0kbits/s speed=14.4x elapsed=0:02:01.50    frame=43810 fps=359 q=33.0 size=   93440KiB time=00:29:12.48 bitrate= 436.8kbits/s speed=14.4x elapsed=0:02:02.01    frame=44000 fps=359 q=33.0 size=   93696KiB time=00:29:20.08 bitrate= 436.1kbits/s speed=14.4x elapsed=0:02:02.51    frame=44199 fps=359 q=33.0 size=   94208KiB time=00:29:28.04 bitrate= 436.5kbits/s speed=14.4x elapsed=0:02:03.02    frame=44389 fps=359 q=33.0 size=   94720KiB time=00:29:35.64 bitrate= 437.0kbits/s speed=14.4x elapsed=0:02:03.52    frame=44565 fps=359 q=33.0 size=   95488KiB time=00:29:42.68 bitrate= 438.8kbits/s speed=14.4x elapsed=0:02:04.03    frame=44750 fps=359 q=33.0 size=   95744KiB time=00:29:50.08 bitrate= 438.2kbits/s speed=14.4x elapsed=0:02:04.53    frame=44932 fps=359 q=33.0 size=   96256KiB time=00:29:57.36 bitrate= 438.7kbits/s speed=14.4x elapsed=0:02:05.04    frame=45109 fps=359 q=33.0 size=   96768KiB time=00:30:04.44 bitrate= 439.3kbits/s speed=14.4x elapsed=0:02:05.54    frame=45284 fps=359 q=33.0 size=   97280KiB time=00:30:11.44 bitrate= 439.9kbits/s speed=14.4x elapsed=0:02:06.05    frame=45476 fps=359 q=33.0 size=   97792KiB time=00:30:19.12 bitrate= 440.4kbits/s speed=14.4x elapsed=0:02:06.55    frame=45646 fps=359 q=33.0 size=   98304KiB time=00:30:25.96 bitrate= 441.0kbits/s speed=14.4x elapsed=0:02:07.05    frame=45827 fps=359 q=33.0 size=   98816KiB time=00:30:33.20 bitrate= 441.6kbits/s speed=14.4x elapsed=0:02:07.56    frame=46006 fps=359 q=33.0 size=   99328KiB time=00:30:40.36 bitrate= 442.1kbits/s speed=14.4x elapsed=0:02:08.06    frame=46183 fps=359 q=33.0 size=   99840KiB time=00:30:47.44 bitrate= 442.7kbits/s speed=14.4x elapsed=0:02:08.57    frame=46356 fps=359 q=33.0 size=  100352KiB time=00:30:54.36 bitrate= 443.3kbits/s speed=14.4x elapsed=0:02:09.07    frame=46532 fps=359 q=33.0 size=  100864KiB time=00:31:01.40 bitrate= 443.9kbits/s speed=14.4x elapsed=0:02:09.58    frame=46717 fps=359 q=33.0 size=  101376KiB time=00:31:08.80 bitrate= 444.4kbits/s speed=14.4x elapsed=0:02:10.08    frame=46899 fps=359 q=33.0 size=  102144KiB time=00:31:16.08 bitrate= 446.0kbits/s speed=14.4x elapsed=0:02:10.58    frame=47078 fps=359 q=33.0 size=  102656KiB time=00:31:23.24 bitrate= 446.5kbits/s speed=14.4x elapsed=0:02:11.08    frame=47255 fps=359 q=33.0 size=  103168KiB time=00:31:30.32 bitrate= 447.1kbits/s speed=14.4x elapsed=0:02:11.59    frame=47432 fps=359 q=33.0 size=  103424KiB time=00:31:37.40 bitrate= 446.5kbits/s speed=14.4x elapsed=0:02:12.09    frame=47610 fps=359 q=33.0 size=  103936KiB time=00:31:44.52 bitrate= 447.1kbits/s speed=14.4x elapsed=0:02:12.60    frame=47804 fps=359 q=33.0 size=  104704KiB time=00:31:52.28 bitrate= 448.5kbits/s speed=14.4x elapsed=0:02:13.10    frame=48000 fps=359 q=33.0 size=  104960KiB time=00:32:00.12 bitrate= 447.8kbits/s speed=14.4x elapsed=0:02:13.60    frame=48158 fps=359 q=33.0 size=  105472KiB time=00:32:06.44 bitrate= 448.5kbits/s speed=14.4x elapsed=0:02:14.11    frame=48328 fps=359 q=33.0 size=  105984KiB time=00:32:13.24 bitrate= 449.1kbits/s speed=14.4x elapsed=0:02:14.61    frame=48506 fps=359 q=33.0 size=  106496KiB time=00:32:20.36 bitrate= 449.6kbits/s speed=14.4x elapsed=0:02:15.12    frame=48677 fps=359 q=33.0 size=  107008KiB time=00:32:27.20 bitrate= 450.2kbits/s speed=14.4x elapsed=0:02:15.62    frame=48856 fps=359 q=33.0 size=  107520KiB time=00:32:34.36 bitrate= 450.7kbits/s speed=14.4x elapsed=0:02:16.13    frame=49041 fps=359 q=33.0 size=  108032KiB time=00:32:41.76 bitrate= 451.1kbits/s speed=14.4x elapsed=0:02:16.63    frame=49237 fps=359 q=33.0 size=  108288KiB time=00:32:49.60 bitrate= 450.4kbits/s speed=14.4x elapsed=0:02:17.13    frame=49421 fps=359 q=33.0 size=  109056KiB time=00:32:56.96 bitrate= 451.9kbits/s speed=14.4x elapsed=0:02:17.64    